<svg width="34" height="39" viewBox="0 0 34 39" fill="none" xmlns="http://www.w3.org/2000/svg">
<path d="M0 22.8925C0 23.9829 0.146367 25.0646 0.430492 26.1163C1.33022 29.4173 3.70223 32.2118 6.94383 33.7829L17.0001 38.6636L27.0736 33.7743C30.0914 32.3105 32.3902 29.7393 33.3846 26.7258C33.7936 25.4853 34.0002 24.1975 34.0002 22.8925V0H0V22.8925ZM3.44393 3.43409H30.5563V22.8925C30.5563 23.8326 30.4056 24.7641 30.1129 25.657C29.4112 27.7947 27.7538 29.6277 25.5669 30.6879L17.0001 34.8475L8.45056 30.6965C6.10437 29.559 4.39532 27.5629 3.75389 25.2148C3.54725 24.455 3.44393 23.6738 3.44393 22.8882V3.43409Z" fill="#00A9DD"/>
<path d="M10.0005 27.3398L13.354 23.9958C14.4432 24.6526 15.6959 25.0089 17.0003 25.0089C18.3047 25.0089 19.5574 24.6526 20.6466 23.9958L23.9958 27.3355L26.4324 24.9058L23.0788 21.5619C24.4177 19.3297 24.4177 16.5224 23.0788 14.2945L26.4324 10.9505L23.9958 8.52092L20.6466 11.8606C19.5574 11.2038 18.3047 10.8475 17.0003 10.8475C15.6959 10.8475 14.4432 11.2038 13.354 11.8606L10.0005 8.51663L7.56392 10.9463L10.9132 14.2859C10.2545 15.3719 9.89719 16.6211 9.89719 17.9218C9.89719 19.2224 10.2545 20.4716 10.9132 21.5576L7.56392 24.8973L10.0005 27.3269V27.3398ZM14.4174 15.3591C15.1061 14.6722 16.0231 14.2945 17.0003 14.2945C17.9775 14.2945 18.8945 14.6722 19.5833 15.3591C21.0082 16.7799 21.0082 19.0893 19.5833 20.5102C18.8945 21.197 17.9775 21.5791 17.0003 21.5791C16.0231 21.5791 15.1061 21.2013 14.4174 20.5102C13.7286 19.8191 13.3454 18.9091 13.3454 17.9346C13.3454 16.9602 13.7243 16.0459 14.4174 15.3591Z" fill="#00A9DD"/>
</svg>
