<svg width="20" height="20" viewBox="0 0 20 20" fill="none" xmlns="http://www.w3.org/2000/svg">
<path d="M4.99992 9.16683C4.99992 8.70659 4.62682 8.3335 4.16659 8.3335C3.70635 8.3335 3.33325 8.70659 3.33325 9.16683C3.33325 12.5665 5.87799 15.3718 9.16658 15.7819V17.5002C9.16658 17.9604 9.53968 18.3335 9.99992 18.3335C10.4602 18.3335 10.8333 17.9604 10.8333 17.5002V15.7819C14.1218 15.3718 16.6666 12.5665 16.6666 9.16683C16.6666 8.70659 16.2935 8.3335 15.8333 8.3335C15.373 8.3335 14.9999 8.70659 14.9999 9.16683C14.9999 11.9283 12.7613 14.1668 9.99992 14.1668C7.23849 14.1668 4.99992 11.9283 4.99992 9.16683Z" fill="#B6C2D1"/>
<path fill-rule="evenodd" clip-rule="evenodd" d="M6.66675 4.99984C6.66675 3.15889 8.15913 1.6665 10.0001 1.6665C11.841 1.6665 13.3334 3.15889 13.3334 4.99984V9.1665C13.3334 11.0075 11.841 12.4998 10.0001 12.4998C8.15913 12.4998 6.66675 11.0075 6.66675 9.1665V4.99984ZM10.0001 3.33317C9.07961 3.33317 8.33341 4.07936 8.33341 4.99984V9.1665C8.33341 10.087 9.07961 10.8332 10.0001 10.8332C10.9206 10.8332 11.6667 10.087 11.6667 9.1665V4.99984C11.6667 4.07936 10.9206 3.33317 10.0001 3.33317Z" fill="#B6C2D1"/>
</svg>
