<svg width="105" height="29" viewBox="0 0 105 29" fill="none" xmlns="http://www.w3.org/2000/svg">
<path d="M13.4867 10.8334C12.5853 10.2227 11.451 9.67222 10.0838 9.17334C9.07023 8.78198 8.25508 8.42072 7.64263 8.08957C7.03019 7.75842 6.6032 7.42296 6.35304 7.08321C6.10289 6.74346 5.97781 6.365 5.97781 5.95213C5.97781 5.56077 6.08564 5.20812 6.3056 4.89847C6.52125 4.58882 6.81022 4.35228 7.15957 4.18456C7.51324 4.02113 7.90572 3.93512 8.34133 3.93512C9.02279 3.93512 9.64817 4.13295 10.2045 4.52431C10.7652 4.91567 11.2526 5.48336 11.6667 6.22738L15.2076 4.08994C14.5046 2.72663 13.5816 1.70307 12.443 1.02356C11.3044 0.339753 9.9889 0 8.4966 0C7.10782 0 5.89155 0.258041 4.84349 0.774122C3.79544 1.2902 2.98459 2.00411 2.40234 2.91156C1.82008 3.819 1.53111 4.86406 1.53111 6.04245C1.53111 7.13912 1.75539 8.09817 2.19962 8.9239C2.64386 9.74963 3.33395 10.4807 4.26555 11.1086C5.19716 11.7408 6.3703 12.3343 7.77633 12.8891C8.70794 13.2418 9.47565 13.5729 10.0752 13.8826C10.6747 14.1922 11.1146 14.5277 11.3949 14.8889C11.6753 15.2502 11.8133 15.6674 11.8133 16.1447C11.8133 16.6608 11.6796 17.1038 11.4079 17.4779C11.1405 17.8478 10.7652 18.1359 10.2908 18.3295C9.81207 18.5273 9.28588 18.6262 8.70362 18.6262C7.56499 18.6262 6.61182 18.308 5.84411 17.6672C5.07639 17.0264 4.5804 16.0673 4.35181 14.7857L0 15.8695C0.332101 17.8951 1.24645 19.5165 2.75169 20.7335C4.25261 21.9506 6.18483 22.5613 8.54836 22.5613C10.0795 22.5613 11.4251 22.2775 12.5724 21.7098C13.724 21.1421 14.6167 20.3508 15.2594 19.3401C15.902 18.3295 16.2212 17.1726 16.2212 15.8695C16.2212 14.7341 15.9883 13.7622 15.5225 12.9579C15.0567 12.1537 14.3709 11.4441 13.4695 10.8334H13.4867Z" fill="#F9FBFC"/>
<path d="M31.7739 15.5297L29.2896 6.85098H25.6538L23.1652 15.5942L20.7715 6.85098H16.2342L21.0216 22.1313H24.8774L27.4868 12.9278L30.1609 22.1313H33.952L38.7696 6.85098H34.2021L31.7739 15.5297Z" fill="#F9FBFC"/>
<path d="M44.6739 6.85098H40.417V22.1313H44.6739V6.85098Z" fill="#F9FBFC"/>
<path d="M44.7947 0.529184H40.3523V4.61913H44.7947V0.529184Z" fill="#F9FBFC"/>
<path d="M57.4622 13.5643C56.8713 13.2031 56.246 12.9192 55.5818 12.7128C54.9176 12.5063 54.2879 12.33 53.684 12.1838C53.0414 12.0204 52.5325 11.8741 52.1616 11.7494C51.7906 11.6247 51.5189 11.4871 51.355 11.3323C51.1868 11.1774 51.1049 10.9882 51.1049 10.7603C51.1049 10.4506 51.2774 10.1969 51.6181 9.99905C51.9588 9.80122 52.3988 9.7066 52.9379 9.7066C53.5805 9.7066 54.193 9.85713 54.7709 10.1539C55.3489 10.4549 55.8276 10.8721 56.1985 11.4097L58.8424 9.33244C58.2429 8.425 57.432 7.73259 56.4185 7.25522C55.4049 6.78215 54.2749 6.54131 53.0285 6.54131C51.2688 6.54131 49.8412 6.96707 48.7543 7.81001C47.6674 8.65724 47.124 9.77111 47.124 11.1559C47.124 11.9817 47.2879 12.6698 47.62 13.216C47.9521 13.7621 48.3877 14.2137 48.9268 14.5664C49.4659 14.919 50.0439 15.2029 50.6693 15.4179C51.2946 15.6329 51.8898 15.8179 52.4721 15.9598C52.9897 16.106 53.4555 16.2479 53.8695 16.3942C54.2835 16.5404 54.6156 16.7081 54.8658 16.9059C55.116 17.1038 55.241 17.3661 55.241 17.6973C55.241 18.0499 55.0469 18.3596 54.6674 18.6262C54.2835 18.8928 53.7487 19.0305 53.0673 19.0305C52.1357 19.0305 51.3637 18.7939 50.7512 18.3166C50.1388 17.8435 49.6557 17.3446 49.3063 16.8285L46.3864 19.3702C46.7617 19.7831 47.2361 20.2347 47.8184 20.7163C48.3963 21.2023 49.1252 21.6109 49.9921 21.942C50.8633 22.2732 51.8769 22.4366 53.0371 22.4366C54.3224 22.4366 55.4437 22.2216 56.4099 21.7872C57.3717 21.3528 58.1178 20.7378 58.6483 19.9422C59.1788 19.1466 59.4419 18.2348 59.4419 17.1984C59.4419 16.3081 59.2607 15.5727 58.8985 14.9835C58.5362 14.3943 58.0574 13.9213 57.4665 13.56L57.4622 13.5643Z" fill="#F9FBFC"/>
<path d="M72.9282 7.58218C71.9751 6.88977 70.8235 6.54572 69.4778 6.54572C68.7964 6.54572 68.1063 6.67474 67.4119 6.93278C66.7175 7.19082 66.0965 7.67249 65.5487 8.3735C65.4452 8.50683 65.346 8.65305 65.2554 8.80787V6.85107H61.0287V28.4534H65.2554V20.0971C65.3244 20.2176 65.3934 20.3423 65.4711 20.4541C65.9671 21.1551 66.5709 21.6626 67.2739 21.9722C67.9769 22.2819 68.7145 22.4367 69.4822 22.4367C70.6639 22.4367 71.7335 22.1271 72.6997 21.5078C73.6615 20.8885 74.4335 19.9853 75.0157 18.794C75.5937 17.6071 75.887 16.1749 75.887 14.502C75.887 12.9752 75.6325 11.6076 75.1236 10.412C74.6146 9.21214 73.8857 8.27029 72.9326 7.57788L72.9282 7.58218ZM71.1858 16.6609C70.9184 17.2716 70.5259 17.7404 70.0213 18.0715C69.5124 18.4027 68.9172 18.5661 68.2357 18.5661C67.5542 18.5661 66.9547 18.3941 66.4501 18.0543C65.9412 17.7146 65.553 17.2458 65.2856 16.6437C65.0182 16.0459 64.8802 15.332 64.8802 14.5063C64.8802 13.6805 65.0139 12.9365 65.2856 12.3387C65.553 11.7409 65.9412 11.2765 66.4501 10.9453C66.9591 10.6142 67.5542 10.4507 68.2357 10.4507C68.9172 10.4507 69.5167 10.6099 70.0213 10.9324C70.5302 11.255 70.9184 11.7194 71.1858 12.3258C71.4532 12.9365 71.5912 13.6633 71.5912 14.5106C71.5912 15.3578 71.4575 16.0545 71.1858 16.6652V16.6609Z" fill="#F9FBFC"/>
<path d="M90.2064 8.82067C89.6069 8.10675 88.8565 7.55197 87.9551 7.1477C87.0536 6.74344 86.0142 6.54131 84.8325 6.54131C83.5041 6.54131 82.3654 6.77354 81.4123 7.23802C80.4591 7.70249 79.6914 8.32179 79.1134 9.09591C78.5355 9.87003 78.1042 10.7345 77.8238 11.6849C77.5435 12.6354 77.4055 13.5944 77.4055 14.5664C77.4055 15.5383 77.5435 16.5533 77.8238 17.4951C78.1042 18.437 78.5484 19.2756 79.1609 20.0196C79.7733 20.7636 80.5712 21.3528 81.5546 21.7872C82.5379 22.2216 83.7154 22.4366 85.0826 22.4366C85.9754 22.4366 86.7647 22.3635 87.4591 22.2216C88.1535 22.0753 88.8263 21.8388 89.4775 21.5077C90.1288 21.1765 90.8405 20.7421 91.6082 20.2045L89.6501 17.2285C89.0678 17.7231 88.395 18.1058 87.6316 18.3768C86.8639 18.6434 86.0962 18.781 85.3328 18.781C84.3796 18.781 83.5601 18.5488 82.8787 18.0843C82.1929 17.6198 81.7918 16.9102 81.6667 15.9598H91.923C91.9662 15.6501 91.992 15.3706 92.0007 15.1212C92.0093 14.8717 92.0179 14.6567 92.0179 14.4718C92.0179 13.3579 91.8669 12.3128 91.5694 11.3409C91.2674 10.3689 90.8189 9.52597 90.2194 8.81636L90.2064 8.82067ZM81.5977 12.8031C81.6581 12.3687 81.809 11.9473 82.0463 11.5344C82.2835 11.1215 82.6371 10.7732 83.1029 10.4979C83.5687 10.2184 84.1639 10.0808 84.8885 10.0808C85.3457 10.0808 85.7597 10.1496 86.1307 10.2829C86.5016 10.4162 86.8251 10.6097 87.0925 10.8549C87.3599 11.1 87.5755 11.3968 87.7308 11.7365C87.8774 12.0591 87.9551 12.416 87.9594 12.8074H81.5891L81.5977 12.8031Z" fill="#F9FBFC"/>
<path d="M103.486 6.76075C103.007 6.61453 102.511 6.54572 101.994 6.54572C101.269 6.54572 100.566 6.73495 99.8805 7.11771C99.199 7.50047 98.634 8.03375 98.1855 8.71326C98.1208 8.81217 98.069 8.91539 98.0129 9.01431V6.85107H93.7215V22.1314H97.9784V15.7793C97.9784 14.9105 98.0043 14.2568 98.0561 13.8096C98.1078 13.3666 98.1855 12.9967 98.289 12.7086C98.4529 12.2527 98.6728 11.8872 98.9402 11.6076C99.2076 11.3281 99.5182 11.1173 99.8718 10.9711C100.226 10.8249 100.588 10.7561 100.959 10.7561C101.33 10.7561 101.701 10.812 102.063 10.9281C102.425 11.0399 102.718 11.1732 102.947 11.3152L105 7.47036C104.461 7.13921 103.952 6.90267 103.477 6.75645L103.486 6.76075Z" fill="#F9FBFC"/>
</svg>
