<svg width="84" height="95" viewBox="0 0 84 95" fill="none" xmlns="http://www.w3.org/2000/svg">
<g clip-path="url(#clip0_75_603)">
<path fill-rule="evenodd" clip-rule="evenodd" d="M0 0H83.2937V56.2428C83.2937 59.4718 82.7804 62.6597 81.7846 65.6731C79.241 73.4126 73.4439 79.522 66.3245 82.9848L41.6469 94.9988L17.0111 83.0058C9.38726 79.2969 3.34618 72.5646 1.05634 64.1682C0.353967 61.6044 0 58.9308 0 56.2428V0ZM8.43694 8.43694V56.2428C8.43694 58.1943 8.69444 60.1181 9.19392 61.9407L9.19467 61.9434L9.19541 61.9462C10.7872 67.7857 15.0597 72.6741 20.702 75.419L20.703 75.4195L41.6468 85.6151L62.6328 75.3984L62.6342 75.3977C67.916 72.8287 72.0105 68.3933 73.7703 63.0362L73.7716 63.0324L73.7728 63.0286C74.4847 60.8755 74.8568 58.5808 74.8568 56.2428V8.43694H8.43694Z" fill="#7FB3D5"/>
<path fill-rule="evenodd" clip-rule="evenodd" d="M59.1622 66.79L18.918 26.5352L24.1313 21.3232L64.3755 61.578L59.1622 66.79Z" fill="#7FB3D5"/>
<path fill-rule="evenodd" clip-rule="evenodd" d="M64.3755 26.5352L24.1313 66.79L18.918 61.578L59.1622 21.3232L64.3755 26.5352Z" fill="#7FB3D5"/>
<path d="M41.647 57.2232C48.916 57.2232 54.8086 51.3305 54.8086 44.0615C54.8086 36.7926 48.916 30.8999 41.647 30.8999C34.378 30.8999 28.4854 36.7926 28.4854 44.0615C28.4854 51.3305 34.378 57.2232 41.647 57.2232Z" fill="white"/>
<path fill-rule="evenodd" clip-rule="evenodd" d="M41.6472 33.7265C35.9392 33.7265 31.3119 38.3537 31.3119 44.0617C31.3119 49.7697 35.9392 54.397 41.6472 54.397C47.3552 54.397 51.9824 49.7697 51.9824 44.0617C51.9824 38.3537 47.3552 33.7265 41.6472 33.7265ZM25.6592 44.0617C25.6592 35.2318 32.8173 28.0737 41.6472 28.0737C50.4771 28.0737 57.6352 35.2318 57.6352 44.0617C57.6352 52.8917 50.4771 60.0498 41.6472 60.0498C32.8173 60.0498 25.6592 52.8917 25.6592 44.0617Z" fill="#7FB3D5"/>
</g>
<defs>
<clipPath id="clip0_75_603">
<rect width="83.2937" height="95" fill="white"/>
</clipPath>
</defs>
</svg>
