<svg width="248" height="67" viewBox="0 0 248 67" fill="none" xmlns="http://www.w3.org/2000/svg">
<path d="M19.8698 52.46C14.3898 52.46 9.9098 51.04 6.4298 48.21C2.9498 45.38 0.819805 41.6 0.0498047 36.9L10.1398 34.38C10.6698 37.36 11.8198 39.59 13.5998 41.08C15.3798 42.57 17.5898 43.31 20.2298 43.31C21.5698 43.31 22.7998 43.08 23.9098 42.62C25.0098 42.16 25.8798 41.5 26.4998 40.64C27.1198 39.78 27.4398 38.74 27.4398 37.54C27.4398 36.44 27.1198 35.46 26.4698 34.62C25.8198 33.78 24.7998 33 23.4098 32.28C22.0198 31.56 20.2398 30.79 18.0798 29.97C14.8098 28.67 12.0998 27.29 9.9398 25.83C7.7798 24.36 6.1798 22.67 5.1498 20.75C4.1198 18.83 3.5998 16.59 3.5998 14.05C3.5998 11.31 4.2698 8.89 5.6198 6.77C6.9598 4.66 8.8498 3 11.2798 1.8C13.7098 0.599999 16.5298 0 19.7498 0C23.2098 0 26.2598 0.789997 28.8998 2.38C31.5398 3.97 33.6798 6.34 35.3098 9.51L27.0998 14.48C26.1398 12.75 25.0098 11.43 23.7098 10.52C22.4098 9.61 20.9698 9.15 19.3898 9.15C18.3798 9.15 17.4698 9.34 16.6498 9.73C15.8298 10.11 15.1698 10.67 14.6698 11.39C14.1698 12.11 13.9098 12.93 13.9098 13.84C13.9098 14.8 14.1998 15.68 14.7798 16.47C15.3598 17.26 16.3498 18.04 17.7698 18.81C19.1898 19.58 21.0698 20.42 23.4298 21.33C26.5998 22.48 29.2298 23.77 31.3198 25.19C33.4098 26.61 34.9898 28.25 36.0798 30.13C37.1698 32.01 37.6998 34.26 37.6998 36.9C37.6998 39.93 36.9498 42.62 35.4698 44.97C33.9798 47.32 31.8998 49.16 29.2398 50.48C26.5698 51.8 23.4598 52.46 19.9098 52.46H19.8698Z" fill="#E0E0E0"/>
<path d="M49.4897 51.4499L38.3896 15.9199H48.9097L54.4597 36.2399L60.2197 15.9199H68.6496L74.4196 36.0999L80.0396 15.9199H90.6297L79.4597 51.4499H70.6696L64.4697 30.0499L58.4196 51.4499H49.4796H49.4897Z" fill="#E0E0E0"/>
<path d="M94.3096 10.7302V1.22021H104.61V10.7302H94.3096ZM94.4596 51.4502V15.9202H104.33V51.4502H94.4596Z" fill="#E0E0E0"/>
<path d="M123.72 52.17C121.03 52.17 118.68 51.78 116.66 51.02C114.64 50.25 112.96 49.3 111.62 48.17C110.27 47.04 109.17 46 108.3 45.04L115.07 39.13C115.89 40.33 117 41.48 118.42 42.59C119.84 43.7 121.63 44.25 123.79 44.25C125.38 44.25 126.61 43.94 127.5 43.31C128.39 42.69 128.83 41.97 128.83 41.15C128.83 40.38 128.54 39.77 127.96 39.31C127.38 38.85 126.61 38.46 125.65 38.12C124.69 37.78 123.61 37.45 122.41 37.11C121.06 36.77 119.67 36.35 118.23 35.85C116.79 35.35 115.44 34.69 114.19 33.87C112.94 33.05 111.93 32.01 111.16 30.73C110.39 29.46 110.01 27.86 110.01 25.94C110.01 22.72 111.27 20.13 113.79 18.16C116.31 16.19 119.61 15.21 123.7 15.21C126.58 15.21 129.2 15.76 131.56 16.87C133.91 17.98 135.79 19.58 137.18 21.7L131.05 26.53C130.19 25.28 129.08 24.31 127.74 23.61C126.39 22.91 124.98 22.57 123.49 22.57C122.24 22.57 121.22 22.8 120.43 23.25C119.64 23.71 119.24 24.29 119.24 25.02C119.24 25.55 119.43 25.99 119.82 26.35C120.2 26.71 120.83 27.03 121.69 27.32C122.56 27.61 123.73 27.94 125.22 28.33C126.61 28.67 128.08 29.08 129.62 29.56C131.16 30.04 132.61 30.7 133.98 31.54C135.35 32.38 136.45 33.49 137.3 34.85C138.14 36.22 138.56 37.94 138.56 40C138.56 42.4 137.95 44.53 136.72 46.38C135.5 48.23 133.77 49.66 131.53 50.67C129.3 51.68 126.69 52.18 123.71 52.18L123.72 52.17Z" fill="#E0E0E0"/>
<path d="M143.82 66.1502V15.9202H153.62V25.0702L151.46 26.5102C152.08 23.4402 153.03 21.0802 154.31 19.4502C155.58 17.8202 157.02 16.7002 158.63 16.1002C160.24 15.5002 161.84 15.2002 163.42 15.2002C166.54 15.2002 169.21 16.0102 171.42 17.6102C173.63 19.2202 175.32 21.4202 176.5 24.2002C177.68 26.9902 178.27 30.1602 178.27 33.7102C178.27 37.6002 177.6 40.9302 176.25 43.6902C174.9 46.4502 173.12 48.5502 170.88 50.0002C168.65 51.4402 166.16 52.1602 163.42 52.1602C161.64 52.1602 159.94 51.8002 158.3 51.0802C156.67 50.3602 155.27 49.1802 154.12 47.5502C152.97 45.9202 152.17 43.8002 151.74 41.2102L153.61 42.1502V66.1502H143.81H143.82ZM160.54 43.1602C162.13 43.1602 163.51 42.7802 164.68 42.0102C165.86 41.2402 166.76 40.1502 167.38 38.7302C168 37.3102 168.32 35.6402 168.32 33.7202C168.32 31.8002 168.01 30.0602 167.38 28.6402C166.76 27.2202 165.85 26.1402 164.68 25.4002C163.5 24.6602 162.12 24.2802 160.54 24.2802C158.96 24.2802 157.57 24.6702 156.4 25.4302C155.22 26.2002 154.32 27.2802 153.7 28.6702C153.08 30.0602 152.76 31.7502 152.76 33.7102C152.76 35.6702 153.07 37.2902 153.7 38.6802C154.32 40.0702 155.22 41.1702 156.4 41.9602C157.58 42.7502 158.96 43.1502 160.54 43.1502V43.1602Z" fill="#E0E0E0"/>
<path d="M199.6 52.17C196.43 52.17 193.7 51.67 191.42 50.66C189.14 49.65 187.29 48.28 185.87 46.55C184.45 44.82 183.42 42.86 182.77 40.68C182.12 38.49 181.8 36.22 181.8 33.87C181.8 31.52 182.12 29.38 182.77 27.17C183.42 24.96 184.42 22.95 185.76 21.15C187.1 19.35 188.88 17.91 191.09 16.83C193.3 15.75 195.94 15.21 199.02 15.21C201.76 15.21 204.17 15.68 206.26 16.62C208.35 17.56 210.09 18.85 211.48 20.51C212.87 22.17 213.92 24.13 214.61 26.38C215.31 28.64 215.65 31.06 215.65 33.66C215.65 34.09 215.64 34.6 215.61 35.17C215.59 35.75 215.53 36.4 215.43 37.12H191.65C191.94 39.33 192.87 40.98 194.46 42.06C196.04 43.14 197.94 43.68 200.15 43.68C201.93 43.68 203.7 43.37 205.48 42.74C207.26 42.12 208.82 41.23 210.16 40.07L214.7 46.99C212.92 48.24 211.28 49.25 209.76 50.02C208.25 50.79 206.68 51.34 205.08 51.68C203.47 52.02 201.63 52.18 199.57 52.18L199.6 52.17ZM205.94 32.13C206.04 31.75 206.12 31.36 206.19 30.98C206.26 30.6 206.3 30.24 206.3 29.9C206.3 28.94 206.12 28.06 205.76 27.27C205.4 26.48 204.91 25.79 204.28 25.22C203.65 24.65 202.91 24.2 202.05 23.89C201.18 23.58 200.22 23.42 199.17 23.42C197.49 23.42 196.11 23.74 195.03 24.39C193.95 25.04 193.13 25.84 192.58 26.8C192.03 27.76 191.68 28.75 191.54 29.75H209.27L205.96 32.13H205.94Z" fill="#E0E0E0"/>
<path d="M221.07 51.4502V15.9202H231.02V25.5802L229.65 25.6502C229.79 23.6302 230.38 21.8302 231.41 20.2402C232.44 18.6602 233.75 17.4202 235.34 16.5302C236.93 15.6402 238.56 15.2002 240.24 15.2002C241.44 15.2002 242.59 15.3702 243.7 15.7002C244.8 16.0402 245.98 16.5902 247.23 17.3602L242.47 26.3002C241.94 25.9602 241.26 25.6602 240.42 25.4002C239.58 25.1402 238.73 25.0002 237.86 25.0002C236.99 25.0002 236.15 25.1702 235.34 25.5002C234.52 25.8402 233.8 26.3302 233.18 26.9802C232.56 27.6302 232.05 28.4802 231.67 29.5402C231.43 30.2102 231.25 31.0702 231.13 32.1002C231.01 33.1302 230.95 34.6602 230.95 36.6802V51.4502H221.08H221.07Z" fill="#E0E0E0"/>
</svg>
